<svg width="200" height="220" viewBox="0 0 200 220" fill="none" xmlns="http://www.w3.org/2000/svg">
<rect x="0.5" y="0.5" width="199" height="219" fill="#575860" stroke="#CAC6C5"/>
<path d="M22.7074 29.0597C22.6364 28.8295 22.5384 28.6236 22.4134 28.4418C22.2912 28.2571 22.1435 28.0994 21.9702 27.9688C21.7997 27.8381 21.6037 27.7401 21.3821 27.6747C21.1605 27.6065 20.919 27.5724 20.6577 27.5724C20.1889 27.5724 19.7713 27.6903 19.4048 27.9261C19.0384 28.1619 18.75 28.5085 18.5398 28.9659C18.3324 29.4205 18.2287 29.9744 18.2287 30.6278C18.2287 31.2869 18.3324 31.8452 18.5398 32.3026C18.7472 32.7599 19.0355 33.108 19.4048 33.3466C19.7741 33.5824 20.2031 33.7003 20.6918 33.7003C21.1349 33.7003 21.5185 33.6151 21.8423 33.4446C22.169 33.2741 22.4205 33.0327 22.5966 32.7202C22.7727 32.4048 22.8608 32.0355 22.8608 31.6122L23.2188 31.6676H20.8494V30.4318H24.3906V31.4801C24.3906 32.2273 24.2315 32.8736 23.9134 33.419C23.5952 33.9645 23.1577 34.3849 22.6009 34.6804C22.044 34.973 21.4048 35.1193 20.6832 35.1193C19.8793 35.1193 19.1733 34.9389 18.5653 34.5781C17.9602 34.2145 17.4872 33.6989 17.1463 33.0312C16.8082 32.3608 16.6392 31.5653 16.6392 30.6449C16.6392 29.9403 16.7386 29.3111 16.9375 28.7571C17.1392 28.2031 17.4205 27.733 17.7812 27.3466C18.142 26.9574 18.5653 26.6619 19.0511 26.4602C19.5369 26.2557 20.0653 26.1534 20.6364 26.1534C21.1193 26.1534 21.5696 26.2244 21.9872 26.3665C22.4048 26.5057 22.7756 26.7045 23.0994 26.9631C23.4261 27.2216 23.6946 27.5284 23.9048 27.8835C24.1151 28.2386 24.2528 28.6307 24.3182 29.0597H22.7074ZM31.6608 26.2727H33.2418V31.9744C33.2418 32.5994 33.094 33.1491 32.7986 33.6236C32.506 34.098 32.094 34.4687 31.5628 34.7358C31.0315 35 30.4108 35.1321 29.7006 35.1321C28.9875 35.1321 28.3654 35 27.8341 34.7358C27.3029 34.4687 26.8909 34.098 26.5983 33.6236C26.3057 33.1491 26.1594 32.5994 26.1594 31.9744V26.2727H27.7404V31.8423C27.7404 32.206 27.8199 32.5298 27.979 32.8139C28.1409 33.098 28.3682 33.321 28.6608 33.483C28.9534 33.642 29.3 33.7216 29.7006 33.7216C30.1012 33.7216 30.4477 33.642 30.7404 33.483C31.0358 33.321 31.2631 33.098 31.4222 32.8139C31.5813 32.5298 31.6608 32.206 31.6608 31.8423V26.2727ZM36.7811 26.2727V35H35.2002V26.2727H36.7811ZM35.4005 25.4119L36.355 23.4645H37.8635L36.5553 25.4119H35.4005ZM39.8539 35H38.1664L41.2388 26.2727H43.1905L46.2672 35H44.5797L42.2488 28.0625H42.1806L39.8539 35ZM39.9093 31.5781H44.5115V32.848H39.9093V31.5781ZM50.8733 35V26.2727H54.146C54.8165 26.2727 55.379 26.3977 55.8335 26.6477C56.2909 26.8977 56.6361 27.2415 56.869 27.679C57.1048 28.1136 57.2227 28.608 57.2227 29.1619C57.2227 29.7216 57.1048 30.2187 56.869 30.6534C56.6332 31.0881 56.2852 31.4304 55.825 31.6804C55.3648 31.9276 54.798 32.0511 54.1247 32.0511H51.9557V30.7514H53.9116C54.3037 30.7514 54.6247 30.6832 54.8747 30.5469C55.1247 30.4105 55.3094 30.223 55.4287 29.9844C55.5509 29.7457 55.6119 29.4716 55.6119 29.1619C55.6119 28.8523 55.5509 28.5795 55.4287 28.3438C55.3094 28.108 55.1233 27.9247 54.8705 27.794C54.6205 27.6605 54.298 27.5938 53.9031 27.5938H52.4543V35H50.8733ZM58.836 35V26.2727H62.1087C62.7791 26.2727 63.3416 26.3892 63.7962 26.6222C64.2536 26.8551 64.5987 27.1818 64.8317 27.6023C65.0675 28.0199 65.1854 28.5071 65.1854 29.0639C65.1854 29.6236 65.0661 30.1094 64.8274 30.5213C64.5916 30.9304 64.2436 31.2472 63.7834 31.4716C63.3232 31.6932 62.7578 31.804 62.0874 31.804H59.7564V30.4915H61.8743C62.2663 30.4915 62.5874 30.4375 62.8374 30.3295C63.0874 30.2187 63.272 30.0582 63.3913 29.848C63.5135 29.6349 63.5746 29.3736 63.5746 29.0639C63.5746 28.7543 63.5135 28.4901 63.3913 28.2713C63.2692 28.0497 63.0831 27.8821 62.8331 27.7685C62.5831 27.652 62.2607 27.5938 61.8658 27.5938H60.4169V35H58.836ZM63.3445 31.0455L65.505 35H63.7408L61.6186 31.0455H63.3445ZM68.0014 35H66.3139L69.3863 26.2727H71.338L74.4147 35H72.7272L70.3963 28.0625H70.3281L68.0014 35ZM68.0568 31.5781H72.659V32.848H68.0568V31.5781ZM69.7698 25.4119L70.7244 23.4645H72.2329L70.9247 25.4119H69.7698ZM82.8642 29.2173H81.2705C81.225 28.956 81.1412 28.7244 81.0191 28.5227C80.8969 28.3182 80.7449 28.1449 80.5631 28.0028C80.3813 27.8608 80.1739 27.7543 79.941 27.6832C79.7108 27.6094 79.4623 27.5724 79.1952 27.5724C78.7208 27.5724 78.3003 27.6918 77.9338 27.9304C77.5674 28.1662 77.2804 28.5128 77.0731 28.9702C76.8657 29.4247 76.762 29.9801 76.762 30.6364C76.762 31.304 76.8657 31.8665 77.0731 32.3239C77.2833 32.7784 77.5702 33.1222 77.9338 33.3551C78.3003 33.5852 78.7194 33.7003 79.191 33.7003C79.4523 33.7003 79.6966 33.6662 79.9239 33.598C80.154 33.527 80.36 33.4233 80.5418 33.2869C80.7265 33.1506 80.8813 32.983 81.0063 32.7841C81.1341 32.5852 81.2222 32.358 81.2705 32.1023L82.8642 32.1108C82.8046 32.5256 82.6753 32.9148 82.4765 33.2784C82.2804 33.642 82.0233 33.9631 81.7052 34.2415C81.387 34.517 81.0148 34.733 80.5887 34.8892C80.1625 35.0426 79.6895 35.1193 79.1696 35.1193C78.4026 35.1193 77.7179 34.9418 77.1157 34.5866C76.5134 34.2315 76.039 33.7188 75.6924 33.0483C75.3458 32.3778 75.1725 31.5739 75.1725 30.6364C75.1725 29.696 75.3472 28.892 75.6966 28.2244C76.0461 27.554 76.5219 27.0412 77.1242 26.6861C77.7265 26.331 78.4083 26.1534 79.1696 26.1534C79.6554 26.1534 80.1071 26.2216 80.5248 26.358C80.9424 26.4943 81.3145 26.6946 81.6412 26.9588C81.9679 27.2202 82.2364 27.5412 82.4466 27.9219C82.6597 28.2997 82.7989 28.7315 82.8642 29.2173ZM84.1685 27.598V26.2727H91.1316V27.598H88.4342V35H86.866V27.598H84.1685ZM94.2949 26.2727V35H92.7139V26.2727H94.2949ZM103.717 29.2173H102.123C102.078 28.956 101.994 28.7244 101.872 28.5227C101.75 28.3182 101.598 28.1449 101.416 28.0028C101.234 27.8608 101.027 27.7543 100.794 27.6832C100.564 27.6094 100.315 27.5724 100.048 27.5724C99.5736 27.5724 99.1531 27.6918 98.7867 27.9304C98.4202 28.1662 98.1333 28.5128 97.9259 28.9702C97.7185 29.4247 97.6148 29.9801 97.6148 30.6364C97.6148 31.304 97.7185 31.8665 97.9259 32.3239C98.1361 32.7784 98.423 33.1222 98.7867 33.3551C99.1531 33.5852 99.5722 33.7003 100.044 33.7003C100.305 33.7003 100.549 33.6662 100.777 33.598C101.007 33.527 101.213 33.4233 101.395 33.2869C101.579 33.1506 101.734 32.983 101.859 32.7841C101.987 32.5852 102.075 32.358 102.123 32.1023L103.717 32.1108C103.657 32.5256 103.528 32.9148 103.329 33.2784C103.133 33.642 102.876 33.9631 102.558 34.2415C102.24 34.517 101.868 34.733 101.441 34.8892C101.015 35.0426 100.542 35.1193 100.022 35.1193C99.2554 35.1193 98.5708 34.9418 97.9685 34.5866C97.3662 34.2315 96.8918 33.7188 96.5452 33.0483C96.1986 32.3778 96.0253 31.5739 96.0253 30.6364C96.0253 29.696 96.2 28.892 96.5494 28.2244C96.8989 27.554 97.3747 27.0412 97.977 26.6861C98.5793 26.331 99.2611 26.1534 100.022 26.1534C100.508 26.1534 100.96 26.2216 101.378 26.358C101.795 26.4943 102.167 26.6946 102.494 26.9588C102.821 27.2202 103.089 27.5412 103.299 27.9219C103.513 28.2997 103.652 28.7315 103.717 29.2173ZM106.42 35H104.733L107.805 26.2727H109.757L112.833 35H111.146L108.815 28.0625H108.747L106.42 35ZM106.476 31.5781H111.078V32.848H106.476V31.5781Z" fill="#CAC6C5"/>
<path d="M19.8182 201H16.8608V192.273H19.8778C20.7443 192.273 21.4886 192.447 22.1108 192.797C22.7358 193.143 23.2159 193.642 23.5511 194.293C23.8864 194.943 24.054 195.722 24.054 196.628C24.054 197.537 23.8849 198.318 23.5469 198.972C23.2116 199.625 22.7273 200.126 22.0938 200.476C21.4631 200.825 20.7045 201 19.8182 201ZM18.4418 199.632H19.7415C20.3494 199.632 20.8565 199.521 21.2628 199.3C21.669 199.075 21.9744 198.741 22.179 198.298C22.3835 197.852 22.4858 197.295 22.4858 196.628C22.4858 195.96 22.3835 195.406 22.179 194.966C21.9744 194.523 21.6719 194.192 21.2713 193.973C20.8736 193.751 20.3793 193.641 19.7884 193.641H18.4418V199.632ZM25.7961 201V192.273H31.4722V193.598H27.3771V195.967H31.1782V197.293H27.3771V199.675H31.5063V201H25.7961ZM38.0681 194.672C38.0283 194.3 37.8607 194.01 37.5652 193.803C37.2726 193.595 36.8919 193.491 36.4232 193.491C36.0936 193.491 35.811 193.541 35.5752 193.641C35.3394 193.74 35.159 193.875 35.034 194.045C34.909 194.216 34.8451 194.411 34.8422 194.629C34.8422 194.811 34.8834 194.969 34.9658 195.102C35.051 195.236 35.1661 195.349 35.311 195.443C35.4559 195.534 35.6164 195.611 35.7925 195.673C35.9686 195.736 36.1462 195.788 36.3252 195.831L37.1434 196.036C37.4729 196.112 37.7897 196.216 38.0936 196.347C38.4005 196.477 38.6746 196.642 38.9161 196.841C39.1604 197.04 39.3536 197.28 39.4956 197.561C39.6377 197.842 39.7087 198.172 39.7087 198.55C39.7087 199.061 39.578 199.511 39.3166 199.901C39.0553 200.287 38.6774 200.589 38.1831 200.808C37.6916 201.024 37.0965 201.132 36.3976 201.132C35.7186 201.132 35.1291 201.027 34.6291 200.817C34.132 200.607 33.7428 200.3 33.4615 199.896C33.1831 199.493 33.0326 199.001 33.0098 198.422H34.5652C34.588 198.726 34.6817 198.979 34.8465 199.18C35.0112 199.382 35.2257 199.533 35.4899 199.632C35.757 199.732 36.0553 199.781 36.3848 199.781C36.7286 199.781 37.0297 199.73 37.2882 199.628C37.5496 199.523 37.7541 199.378 37.9019 199.193C38.0496 199.006 38.1249 198.787 38.1277 198.537C38.1249 198.31 38.0581 198.122 37.9274 197.974C37.7968 197.824 37.6135 197.699 37.3777 197.599C37.1448 197.497 36.872 197.406 36.5595 197.327L35.5666 197.071C34.8479 196.886 34.2797 196.607 33.8621 196.232C33.4473 195.854 33.2399 195.352 33.2399 194.727C33.2399 194.213 33.3791 193.763 33.6576 193.376C33.9388 192.99 34.3209 192.69 34.8039 192.477C35.2868 192.261 35.8337 192.153 36.4445 192.153C37.0638 192.153 37.6064 192.261 38.0723 192.477C38.5411 192.69 38.909 192.987 39.176 193.368C39.4431 193.746 39.5809 194.18 39.5894 194.672H38.0681ZM48.8283 195.217H47.2346C47.1891 194.956 47.1053 194.724 46.9831 194.523C46.861 194.318 46.709 194.145 46.5272 194.003C46.3454 193.861 46.138 193.754 45.905 193.683C45.6749 193.609 45.4263 193.572 45.1593 193.572C44.6848 193.572 44.2644 193.692 43.8979 193.93C43.5314 194.166 43.2445 194.513 43.0371 194.97C42.8297 195.425 42.726 195.98 42.726 196.636C42.726 197.304 42.8297 197.866 43.0371 198.324C43.2473 198.778 43.5343 199.122 43.8979 199.355C44.2644 199.585 44.6834 199.7 45.155 199.7C45.4164 199.7 45.6607 199.666 45.888 199.598C46.1181 199.527 46.324 199.423 46.5059 199.287C46.6905 199.151 46.8454 198.983 46.9704 198.784C47.0982 198.585 47.1863 198.358 47.2346 198.102L48.8283 198.111C48.7687 198.526 48.6394 198.915 48.4405 199.278C48.2445 199.642 47.9874 199.963 47.6692 200.241C47.351 200.517 46.9789 200.733 46.5527 200.889C46.1266 201.043 45.6536 201.119 45.1337 201.119C44.3667 201.119 43.682 200.942 43.0797 200.587C42.4775 200.232 42.003 199.719 41.6564 199.048C41.3098 198.378 41.1365 197.574 41.1365 196.636C41.1365 195.696 41.3113 194.892 41.6607 194.224C42.0101 193.554 42.486 193.041 43.0883 192.686C43.6905 192.331 44.3723 192.153 45.1337 192.153C45.6195 192.153 46.0712 192.222 46.4888 192.358C46.9064 192.494 47.2786 192.695 47.6053 192.959C47.932 193.22 48.2005 193.541 48.4107 193.922C48.6238 194.3 48.763 194.732 48.8283 195.217ZM51.5314 201H49.8439L52.9163 192.273H54.868L57.9447 201H56.2572L53.9263 194.062H53.8581L51.5314 201ZM51.5868 197.578H56.189V198.848H51.5868V197.578ZM59.3342 201V192.273H62.607C63.2774 192.273 63.8399 192.389 64.2945 192.622C64.7518 192.855 65.097 193.182 65.33 193.602C65.5658 194.02 65.6837 194.507 65.6837 195.064C65.6837 195.624 65.5643 196.109 65.3257 196.521C65.0899 196.93 64.7419 197.247 64.2817 197.472C63.8214 197.693 63.2561 197.804 62.5857 197.804H60.2547V196.491H62.3726C62.7646 196.491 63.0857 196.437 63.3357 196.33C63.5857 196.219 63.7703 196.058 63.8896 195.848C64.0118 195.635 64.0729 195.374 64.0729 195.064C64.0729 194.754 64.0118 194.49 63.8896 194.271C63.7675 194.05 63.5814 193.882 63.3314 193.768C63.0814 193.652 62.7589 193.594 62.3641 193.594H60.9152V201H59.3342ZM63.8428 197.045L66.0033 201H64.2391L62.1169 197.045H63.8428ZM73.2255 195.06C73.1545 194.83 73.0565 194.624 72.9315 194.442C72.8093 194.257 72.6616 194.099 72.4883 193.969C72.3178 193.838 72.1218 193.74 71.9002 193.675C71.6786 193.607 71.4372 193.572 71.1758 193.572C70.707 193.572 70.2894 193.69 69.923 193.926C69.5565 194.162 69.2681 194.509 69.0579 194.966C68.8505 195.42 68.7468 195.974 68.7468 196.628C68.7468 197.287 68.8505 197.845 69.0579 198.303C69.2653 198.76 69.5536 199.108 69.923 199.347C70.2923 199.582 70.7212 199.7 71.2099 199.7C71.6531 199.7 72.0366 199.615 72.3605 199.445C72.6872 199.274 72.9386 199.033 73.1147 198.72C73.2909 198.405 73.3789 198.036 73.3789 197.612L73.7369 197.668H71.3676V196.432H74.9087V197.48C74.9087 198.227 74.7497 198.874 74.4315 199.419C74.1133 199.964 73.6758 200.385 73.119 200.68C72.5622 200.973 71.923 201.119 71.2014 201.119C70.3974 201.119 69.6914 200.939 69.0835 200.578C68.4784 200.214 68.0053 199.699 67.6644 199.031C67.3264 198.361 67.1573 197.565 67.1573 196.645C67.1573 195.94 67.2568 195.311 67.4556 194.757C67.6573 194.203 67.9386 193.733 68.2994 193.347C68.6602 192.957 69.0835 192.662 69.5693 192.46C70.0551 192.256 70.5835 192.153 71.1545 192.153C71.6374 192.153 72.0877 192.224 72.5053 192.366C72.923 192.506 73.2937 192.705 73.6176 192.963C73.9443 193.222 74.2127 193.528 74.423 193.884C74.6332 194.239 74.771 194.631 74.8363 195.06H73.2255ZM77.5287 201H75.8412L78.9137 192.273H80.8654L83.9421 201H82.2546L79.9236 194.062H79.8554L77.5287 201ZM77.5841 197.578H82.1864V198.848H77.5841V197.578Z" fill="#F7F6F6"/>
<path d="M16 203.386H84.2318V204.205H16V203.386Z" fill="#F7F6F6"/>
<path d="M15.072 78L15.12 77.76L15.384 77.664C16.072 77.424 16.48 76.96 16.608 76.272L17.856 69.6C18.032 68.72 18.2 67.824 18.36 66.912C18.52 65.984 18.696 64.96 18.888 63.84C19 63.184 18.744 62.736 18.12 62.496L17.88 62.4L17.928 62.16H23.16C25.224 62.16 26.72 62.56 27.648 63.36C28.592 64.144 29.064 65.184 29.064 66.48C29.064 67.408 28.792 68.28 28.248 69.096C27.72 69.896 26.912 70.544 25.824 71.04C24.752 71.52 23.4 71.76 21.768 71.76H20.712C20.584 72.4 20.448 73.112 20.304 73.896C20.176 74.664 20.04 75.44 19.896 76.224C19.784 76.96 20.072 77.448 20.76 77.688L21.048 77.76L21 78H15.072ZM20.808 71.28H21.696C22.912 71.28 23.896 70.848 24.648 69.984C25.4 69.104 25.776 67.896 25.776 66.36C25.776 65.16 25.536 64.24 25.056 63.6C24.576 62.96 23.888 62.64 22.992 62.64H22.416C22.16 64.08 21.896 65.52 21.624 66.96C21.352 68.4 21.08 69.84 20.808 71.28ZM31.8562 78.36C31.4082 78.36 30.9842 78.256 30.5842 78.048C30.1842 77.84 29.8562 77.496 29.6002 77.016C29.3602 76.536 29.2402 75.904 29.2402 75.12C29.2402 74.272 29.4082 73.424 29.7442 72.576C30.0802 71.712 30.5282 70.896 31.0882 70.128C31.6482 69.344 32.2722 68.656 32.9602 68.064C33.6482 67.456 34.3602 66.976 35.0963 66.624C35.8323 66.272 36.5282 66.096 37.1842 66.096C37.5042 66.096 37.8003 66.16 38.0723 66.288C38.3602 66.4 38.6322 66.56 38.8882 66.768L40.8323 66.024L41.0242 66.144L38.9362 75.336C38.8242 75.784 38.7682 76.152 38.7682 76.44C38.7682 76.776 38.9202 76.944 39.2242 76.944C39.4482 76.944 39.7042 76.84 39.9922 76.632C40.2962 76.424 40.6402 76.144 41.0242 75.792L41.2162 75.984C40.9763 76.368 40.6723 76.744 40.3043 77.112C39.9523 77.464 39.5522 77.76 39.1042 78C38.6722 78.24 38.2082 78.36 37.7122 78.36C37.1682 78.36 36.7282 78.2 36.3922 77.88C36.0562 77.544 35.8882 77.032 35.8882 76.344C35.8882 76.12 35.8962 75.904 35.9122 75.696C35.2722 76.416 34.5922 77.04 33.8722 77.568C33.1682 78.096 32.4962 78.36 31.8562 78.36ZM32.0722 74.04C32.0722 74.888 32.2082 75.504 32.4802 75.888C32.7682 76.256 33.1442 76.44 33.6082 76.44C33.9922 76.44 34.3762 76.32 34.7603 76.08C35.1442 75.84 35.5602 75.496 36.0082 75.048C36.0402 74.856 36.0802 74.656 36.1282 74.448L37.6403 67.536C37.4323 67.28 37.1842 67.104 36.8962 67.008C36.6082 66.912 36.3522 66.864 36.1282 66.864C35.4402 66.864 34.7203 67.272 33.9682 68.088C33.3762 68.744 32.9122 69.608 32.5762 70.68C32.2402 71.752 32.0722 72.872 32.0722 74.04ZM46.0796 78.36C45.0716 78.36 44.2556 78.16 43.6316 77.76C43.0076 77.36 42.6956 76.792 42.6956 76.056C42.6956 75.672 42.8316 75.336 43.1036 75.048C43.3756 74.76 43.7276 74.616 44.1596 74.616C44.9596 74.616 45.4556 75.104 45.6476 76.08L45.7916 76.752C45.8716 77.088 45.9676 77.36 46.0796 77.568C46.2076 77.776 46.4476 77.88 46.7996 77.88C47.1996 77.88 47.5516 77.712 47.8556 77.376C48.1596 77.04 48.3116 76.576 48.3116 75.984C48.3116 75.536 48.1676 75.104 47.8796 74.688C47.6076 74.272 47.1436 73.816 46.4876 73.32C45.8316 72.808 45.3036 72.28 44.9036 71.736C44.5036 71.176 44.3036 70.512 44.3036 69.744C44.3036 69.072 44.4716 68.464 44.8076 67.92C45.1596 67.36 45.6636 66.92 46.3196 66.6C46.9756 66.264 47.7516 66.096 48.6476 66.096C49.6876 66.096 50.5036 66.304 51.0956 66.72C51.7036 67.136 52.0076 67.672 52.0076 68.328C52.0076 68.68 51.9036 68.976 51.6956 69.216C51.4876 69.44 51.1756 69.552 50.7596 69.552C49.9916 69.552 49.4716 69.088 49.1996 68.16L48.9596 67.488C48.8796 67.168 48.7836 66.944 48.6716 66.816C48.5596 66.688 48.3836 66.624 48.1436 66.624C47.8876 66.624 47.6236 66.768 47.3516 67.056C47.0796 67.328 46.9436 67.768 46.9436 68.376C46.9436 68.952 47.1116 69.48 47.4476 69.96C47.7996 70.424 48.3196 70.912 49.0076 71.424C49.7116 71.952 50.2236 72.464 50.5436 72.96C50.8796 73.456 51.0476 74.056 51.0476 74.76C51.0476 75.416 50.8556 76.016 50.4716 76.56C50.0876 77.104 49.5276 77.544 48.7916 77.88C48.0556 78.2 47.1516 78.36 46.0796 78.36ZM57.7524 78.36C56.9204 78.36 56.1604 78.2 55.4724 77.88C54.7844 77.544 54.2404 77.048 53.8404 76.392C53.4404 75.72 53.2404 74.872 53.2404 73.848C53.2404 72.824 53.4084 71.848 53.7444 70.92C54.0964 69.992 54.5844 69.168 55.2084 68.448C55.8324 67.712 56.5604 67.136 57.3924 66.72C58.2244 66.304 59.1284 66.096 60.1044 66.096C60.9524 66.096 61.7044 66.264 62.3604 66.6C63.0324 66.92 63.5604 67.408 63.9444 68.064C64.3444 68.72 64.5444 69.56 64.5444 70.584C64.5444 71.592 64.3684 72.568 64.0164 73.512C63.6804 74.44 63.2004 75.272 62.5764 76.008C61.9684 76.728 61.2484 77.304 60.4164 77.736C59.6004 78.152 58.7124 78.36 57.7524 78.36ZM58.0404 77.88C58.5364 77.88 58.9844 77.656 59.3844 77.208C59.8004 76.744 60.1604 76.136 60.4644 75.384C60.7684 74.616 61.0004 73.776 61.1604 72.864C61.3204 71.936 61.4004 71.016 61.4004 70.104C61.4004 68.776 61.2644 67.856 60.9924 67.344C60.7204 66.832 60.3684 66.576 59.9364 66.576C59.4244 66.576 58.9524 66.8 58.5204 67.248C58.0884 67.696 57.7124 68.296 57.3924 69.048C57.0724 69.8 56.8244 70.632 56.6484 71.544C56.4724 72.456 56.3844 73.368 56.3844 74.28C56.3844 75.64 56.5444 76.584 56.8644 77.112C57.1844 77.624 57.5764 77.88 58.0404 77.88ZM69.0943 78.36C68.0863 78.36 67.2703 78.16 66.6463 77.76C66.0223 77.36 65.7103 76.792 65.7103 76.056C65.7103 75.672 65.8463 75.336 66.1183 75.048C66.3903 74.76 66.7423 74.616 67.1743 74.616C67.9743 74.616 68.4703 75.104 68.6623 76.08L68.8063 76.752C68.8863 77.088 68.9823 77.36 69.0943 77.568C69.2223 77.776 69.4623 77.88 69.8143 77.88C70.2143 77.88 70.5663 77.712 70.8703 77.376C71.1743 77.04 71.3263 76.576 71.3263 75.984C71.3263 75.536 71.1823 75.104 70.8943 74.688C70.6223 74.272 70.1583 73.816 69.5023 73.32C68.8463 72.808 68.3183 72.28 67.9183 71.736C67.5183 71.176 67.3183 70.512 67.3183 69.744C67.3183 69.072 67.4863 68.464 67.8223 67.92C68.1743 67.36 68.6783 66.92 69.3343 66.6C69.9903 66.264 70.7663 66.096 71.6623 66.096C72.7023 66.096 73.5183 66.304 74.1103 66.72C74.7183 67.136 75.0223 67.672 75.0223 68.328C75.0223 68.68 74.9183 68.976 74.7103 69.216C74.5023 69.44 74.1903 69.552 73.7743 69.552C73.0063 69.552 72.4863 69.088 72.2143 68.16L71.9743 67.488C71.8943 67.168 71.7983 66.944 71.6863 66.816C71.5743 66.688 71.3983 66.624 71.1583 66.624C70.9023 66.624 70.6383 66.768 70.3663 67.056C70.0943 67.328 69.9583 67.768 69.9583 68.376C69.9583 68.952 70.1263 69.48 70.4623 69.96C70.8143 70.424 71.3343 70.912 72.0223 71.424C72.7263 71.952 73.2383 72.464 73.5583 72.96C73.8943 73.456 74.0623 74.056 74.0623 74.76C74.0623 75.416 73.8703 76.016 73.4863 76.56C73.1023 77.104 72.5423 77.544 71.8063 77.88C71.0703 78.2 70.1663 78.36 69.0943 78.36ZM84.7406 78.36C84.2926 78.36 83.8686 78.256 83.4686 78.048C83.0686 77.84 82.7406 77.496 82.4846 77.016C82.2446 76.536 82.1246 75.904 82.1246 75.12C82.1246 74.272 82.2926 73.424 82.6286 72.576C82.9646 71.712 83.4126 70.896 83.9726 70.128C84.5326 69.344 85.1566 68.656 85.8446 68.064C86.5326 67.456 87.2446 66.976 87.9806 66.624C88.7166 66.272 89.4126 66.096 90.0686 66.096C90.3886 66.096 90.6846 66.16 90.9566 66.288C91.2446 66.4 91.5166 66.56 91.7726 66.768L93.7166 66.024L93.9086 66.144L91.8206 75.336C91.7086 75.784 91.6526 76.152 91.6526 76.44C91.6526 76.776 91.8046 76.944 92.1086 76.944C92.3326 76.944 92.5886 76.84 92.8766 76.632C93.1806 76.424 93.5246 76.144 93.9086 75.792L94.1006 75.984C93.8606 76.368 93.5566 76.744 93.1886 77.112C92.8366 77.464 92.4366 77.76 91.9886 78C91.5566 78.24 91.0926 78.36 90.5966 78.36C90.0526 78.36 89.6126 78.2 89.2766 77.88C88.9406 77.544 88.7726 77.032 88.7726 76.344C88.7726 76.12 88.7806 75.904 88.7966 75.696C88.1566 76.416 87.4766 77.04 86.7566 77.568C86.0526 78.096 85.3806 78.36 84.7406 78.36ZM84.9566 74.04C84.9566 74.888 85.0926 75.504 85.3646 75.888C85.6526 76.256 86.0286 76.44 86.4926 76.44C86.8766 76.44 87.2606 76.32 87.6446 76.08C88.0286 75.84 88.4446 75.496 88.8926 75.048C88.9246 74.856 88.9646 74.656 89.0126 74.448L90.5246 67.536C90.3166 67.28 90.0686 67.104 89.7806 67.008C89.4926 66.912 89.2366 66.864 89.0126 66.864C88.3246 66.864 87.6046 67.272 86.8526 68.088C86.2606 68.744 85.7966 69.608 85.4606 70.68C85.1246 71.752 84.9566 72.872 84.9566 74.04ZM104.788 78.36C103.78 78.36 102.964 78.16 102.34 77.76C101.716 77.36 101.404 76.792 101.404 76.056C101.404 75.672 101.54 75.336 101.812 75.048C102.084 74.76 102.436 74.616 102.868 74.616C103.668 74.616 104.164 75.104 104.356 76.08L104.5 76.752C104.58 77.088 104.676 77.36 104.788 77.568C104.916 77.776 105.156 77.88 105.508 77.88C105.908 77.88 106.26 77.712 106.564 77.376C106.868 77.04 107.02 76.576 107.02 75.984C107.02 75.536 106.876 75.104 106.588 74.688C106.316 74.272 105.852 73.816 105.196 73.32C104.54 72.808 104.012 72.28 103.612 71.736C103.212 71.176 103.012 70.512 103.012 69.744C103.012 69.072 103.18 68.464 103.516 67.92C103.868 67.36 104.372 66.92 105.028 66.6C105.684 66.264 106.46 66.096 107.356 66.096C108.396 66.096 109.212 66.304 109.804 66.72C110.412 67.136 110.716 67.672 110.716 68.328C110.716 68.68 110.612 68.976 110.404 69.216C110.196 69.44 109.884 69.552 109.468 69.552C108.7 69.552 108.18 69.088 107.908 68.16L107.668 67.488C107.588 67.168 107.492 66.944 107.38 66.816C107.268 66.688 107.092 66.624 106.852 66.624C106.596 66.624 106.332 66.768 106.06 67.056C105.788 67.328 105.652 67.768 105.652 68.376C105.652 68.952 105.82 69.48 106.156 69.96C106.508 70.424 107.028 70.912 107.716 71.424C108.42 71.952 108.932 72.464 109.252 72.96C109.588 73.456 109.756 74.056 109.756 74.76C109.756 75.416 109.564 76.016 109.18 76.56C108.796 77.104 108.236 77.544 107.5 77.88C106.764 78.2 105.86 78.36 104.788 78.36ZM116.077 78.36C114.877 78.36 113.901 77.968 113.149 77.184C112.397 76.4 112.021 75.288 112.021 73.848C112.021 72.824 112.197 71.848 112.549 70.92C112.901 69.992 113.389 69.168 114.013 68.448C114.653 67.712 115.389 67.136 116.221 66.72C117.053 66.304 117.957 66.096 118.933 66.096C119.941 66.096 120.709 66.328 121.237 66.792C121.781 67.24 122.053 67.84 122.053 68.592C122.053 69.216 121.757 69.832 121.165 70.44C120.589 71.048 119.773 71.6 118.717 72.096C117.661 72.576 116.421 72.944 114.997 73.2C115.013 74.304 115.253 75.112 115.717 75.624C116.181 76.136 116.821 76.392 117.637 76.392C118.325 76.392 118.957 76.208 119.533 75.84C120.109 75.456 120.597 75.008 120.997 74.496L121.237 74.664C120.917 75.288 120.501 75.88 119.989 76.44C119.493 77 118.917 77.464 118.261 77.832C117.605 78.184 116.877 78.36 116.077 78.36ZM118.765 66.744C118.397 66.744 117.997 66.904 117.565 67.224C117.149 67.544 116.749 67.984 116.365 68.544C115.997 69.088 115.685 69.72 115.429 70.44C115.189 71.144 115.045 71.896 114.997 72.696C116.757 72.216 118.005 71.584 118.741 70.8C119.493 70.016 119.869 69.128 119.869 68.136C119.869 67.656 119.765 67.304 119.557 67.08C119.349 66.856 119.085 66.744 118.765 66.744ZM125.753 83.664C124.409 83.664 123.345 83.456 122.561 83.04C121.793 82.624 121.409 82.016 121.409 81.216C121.409 80.72 121.585 80.264 121.937 79.848C122.289 79.448 122.721 79.096 123.233 78.792C123.761 78.488 124.297 78.248 124.841 78.072C124.297 77.928 123.873 77.736 123.569 77.496C123.265 77.24 123.113 76.92 123.113 76.536C123.113 76.152 123.337 75.704 123.785 75.192C124.249 74.664 124.793 74.16 125.417 73.68C124.953 73.36 124.601 72.96 124.361 72.48C124.121 72 124.001 71.496 124.001 70.968C124.001 70.088 124.225 69.28 124.673 68.544C125.121 67.808 125.721 67.216 126.473 66.768C127.241 66.32 128.081 66.096 128.993 66.096C129.601 66.096 130.161 66.184 130.673 66.36C131.201 66.52 131.641 66.768 131.993 67.104C132.505 67.024 132.993 66.904 133.457 66.744C133.937 66.568 134.393 66.352 134.825 66.096L134.993 66.264L134.753 67.512H132.353C132.737 68.024 132.929 68.64 132.929 69.36C132.929 70.336 132.713 71.2 132.281 71.952C131.865 72.704 131.281 73.296 130.529 73.728C129.777 74.144 128.897 74.352 127.889 74.352C127.121 74.352 126.441 74.208 125.849 73.92L125.489 74.52C125.361 74.712 125.321 74.904 125.369 75.096C125.417 75.288 125.585 75.408 125.873 75.456L129.809 76.248C131.137 76.52 132.065 76.872 132.593 77.304C133.137 77.736 133.409 78.328 133.409 79.08C133.409 79.976 133.073 80.768 132.401 81.456C131.745 82.144 130.841 82.68 129.689 83.064C128.537 83.464 127.225 83.664 125.753 83.664ZM128.321 73.872C128.849 73.872 129.297 73.568 129.665 72.96C130.049 72.352 130.241 71.296 130.241 69.792C130.241 68.768 130.105 67.976 129.833 67.416C129.561 66.856 129.217 66.576 128.801 66.576C128.161 66.592 127.673 66.968 127.337 67.704C127.001 68.424 126.833 69.392 126.833 70.608C126.833 71.488 126.945 72.256 127.169 72.912C127.409 73.568 127.793 73.888 128.321 73.872ZM123.833 80.376C123.833 81.176 124.121 81.8 124.697 82.248C125.273 82.712 126.049 82.944 127.025 82.944C128.257 82.944 129.225 82.736 129.929 82.32C130.633 81.904 130.985 81.304 130.985 80.52C130.985 80.056 130.777 79.688 130.361 79.416C129.961 79.144 129.249 78.912 128.225 78.72L125.417 78.192C125.337 78.176 125.265 78.16 125.201 78.144C124.785 78.4 124.449 78.712 124.193 79.08C123.953 79.464 123.833 79.896 123.833 80.376ZM138.412 78.36C137.868 78.36 137.396 78.2 136.996 77.88C136.612 77.544 136.42 77.048 136.42 76.392C136.42 76.024 136.46 75.624 136.54 75.192C136.62 74.76 136.708 74.336 136.804 73.92L137.86 69.192C138.004 68.568 137.788 68.112 137.212 67.824L136.756 67.632L136.78 67.368L141.316 66.072L141.532 66.264L139.852 73.608C139.756 74.008 139.676 74.368 139.612 74.688C139.548 75.008 139.516 75.304 139.516 75.576C139.516 75.928 139.596 76.184 139.756 76.344C139.916 76.488 140.124 76.56 140.38 76.56C140.748 76.56 141.156 76.432 141.604 76.176C142.052 75.904 142.572 75.488 143.164 74.928C143.18 74.832 143.204 74.728 143.236 74.616L144.052 70.752C144.18 70.128 144.3 69.504 144.412 68.88C144.54 68.24 144.66 67.6 144.772 66.96L147.796 66.072L148.06 66.288L146.164 75C146.036 75.56 145.972 76 145.972 76.32C145.972 76.656 146.116 76.824 146.404 76.824C146.628 76.824 146.868 76.736 147.124 76.56C147.38 76.368 147.692 76.088 148.06 75.72L148.348 76.008C147.948 76.6 147.436 77.144 146.812 77.64C146.204 78.12 145.508 78.36 144.724 78.36C144.228 78.36 143.812 78.192 143.476 77.856C143.156 77.504 142.996 77.008 142.996 76.368C142.996 76.128 143.012 75.896 143.044 75.672C142.212 76.504 141.404 77.16 140.62 77.64C139.852 78.12 139.116 78.36 138.412 78.36ZM154.101 64.752C153.653 64.752 153.261 64.608 152.925 64.32C152.605 64.016 152.445 63.616 152.445 63.12C152.445 62.56 152.637 62.104 153.021 61.752C153.421 61.384 153.869 61.2 154.365 61.2C154.845 61.2 155.237 61.352 155.541 61.656C155.845 61.96 155.997 62.352 155.997 62.832C155.997 63.376 155.805 63.832 155.421 64.2C155.037 64.568 154.597 64.752 154.101 64.752ZM151.869 78.36C151.373 78.36 150.965 78.232 150.645 77.976C150.325 77.72 150.165 77.344 150.165 76.848C150.165 76.56 150.197 76.216 150.261 75.816C150.325 75.416 150.397 75.016 150.477 74.616L151.605 69.216C151.749 68.56 151.517 68.096 150.909 67.824L150.525 67.632L150.549 67.368L155.061 66.072L155.301 66.288L153.429 74.976C153.365 75.264 153.317 75.512 153.285 75.72C153.253 75.912 153.237 76.104 153.237 76.296C153.237 76.648 153.397 76.824 153.717 76.824C153.957 76.824 154.197 76.752 154.437 76.608C154.677 76.448 154.981 76.192 155.349 75.84L155.565 76.056C155.165 76.648 154.653 77.184 154.029 77.664C153.421 78.128 152.701 78.36 151.869 78.36ZM157.321 78.168L157.081 78L158.905 69.216C158.985 68.8 158.961 68.496 158.833 68.304C158.705 68.096 158.489 67.928 158.185 67.8L157.825 67.632L157.873 67.392L162.049 66.072L162.289 66.288L161.641 70.248C161.977 69.48 162.369 68.784 162.817 68.16C163.265 67.536 163.737 67.04 164.233 66.672C164.729 66.288 165.225 66.096 165.721 66.096C166.217 66.096 166.617 66.232 166.921 66.504C167.225 66.76 167.377 67.104 167.377 67.536C167.377 67.984 167.241 68.352 166.969 68.64C166.713 68.928 166.361 69.072 165.913 69.072C165.561 69.072 165.225 68.984 164.905 68.808C164.585 68.616 164.273 68.344 163.969 67.992C163.409 68.408 162.929 68.952 162.529 69.624C162.129 70.28 161.761 71 161.425 71.784L161.185 72.888C161.009 73.736 160.841 74.584 160.681 75.432C160.521 76.28 160.361 77.136 160.201 78L157.321 78.168ZM18.72 107.36C18.272 107.36 17.848 107.256 17.448 107.048C17.048 106.84 16.72 106.496 16.464 106.016C16.224 105.536 16.104 104.904 16.104 104.12C16.104 103.272 16.272 102.424 16.608 101.576C16.944 100.712 17.392 99.896 17.952 99.128C18.512 98.344 19.136 97.656 19.824 97.064C20.512 96.456 21.224 95.976 21.96 95.624C22.696 95.272 23.392 95.096 24.048 95.096C24.368 95.096 24.664 95.16 24.936 95.288C25.224 95.4 25.496 95.56 25.752 95.768L27.696 95.024L27.888 95.144L25.8 104.336C25.688 104.784 25.632 105.152 25.632 105.44C25.632 105.776 25.784 105.944 26.088 105.944C26.312 105.944 26.568 105.84 26.856 105.632C27.16 105.424 27.504 105.144 27.888 104.792L28.08 104.984C27.84 105.368 27.536 105.744 27.168 106.112C26.816 106.464 26.416 106.76 25.968 107C25.536 107.24 25.072 107.36 24.576 107.36C24.032 107.36 23.592 107.2 23.256 106.88C22.92 106.544 22.752 106.032 22.752 105.344C22.752 105.12 22.76 104.904 22.776 104.696C22.136 105.416 21.456 106.04 20.736 106.568C20.032 107.096 19.36 107.36 18.72 107.36ZM18.936 103.04C18.936 103.888 19.072 104.504 19.344 104.888C19.632 105.256 20.008 105.44 20.472 105.44C20.856 105.44 21.24 105.32 21.624 105.08C22.008 104.84 22.424 104.496 22.872 104.048C22.904 103.856 22.944 103.656 22.992 103.448L24.504 96.536C24.296 96.28 24.048 96.104 23.76 96.008C23.472 95.912 23.216 95.864 22.992 95.864C22.304 95.864 21.584 96.272 20.832 97.088C20.24 97.744 19.776 98.608 19.44 99.68C19.104 100.752 18.936 101.872 18.936 103.04ZM29.9662 107.168L29.7502 107L31.5982 98.168C31.7422 97.544 31.5182 97.096 30.9262 96.824L30.5182 96.632L30.5422 96.392L35.0063 95.072L35.2222 95.264L34.6702 98.168C35.5022 97.224 36.3502 96.48 37.2142 95.936C38.0782 95.376 38.8943 95.096 39.6623 95.096C40.1743 95.096 40.5983 95.256 40.9343 95.576C41.2702 95.88 41.4382 96.36 41.4382 97.016C41.4382 97.352 41.4062 97.704 41.3423 98.072C41.2783 98.424 41.1983 98.792 41.1022 99.176L39.8303 104.288C39.7663 104.544 39.7183 104.76 39.6862 104.936C39.6542 105.096 39.6382 105.24 39.6382 105.368C39.6382 105.704 39.7743 105.872 40.0463 105.872C40.4943 105.872 41.0623 105.512 41.7502 104.792L41.9902 105.032C41.5903 105.624 41.0623 106.16 40.4062 106.64C39.7502 107.12 39.0222 107.36 38.2223 107.36C37.6942 107.36 37.2862 107.24 36.9983 107C36.7103 106.744 36.5663 106.392 36.5663 105.944C36.5663 105.608 36.6063 105.264 36.6862 104.912C36.7662 104.544 36.8542 104.168 36.9503 103.784L37.8863 100.04C38.0143 99.528 38.1182 99.072 38.1982 98.672C38.2782 98.272 38.3182 97.904 38.3182 97.568C38.3182 97.28 38.2542 97.08 38.1263 96.968C37.9982 96.84 37.8222 96.776 37.5982 96.776C37.2142 96.776 36.7582 96.944 36.2303 97.28C35.7183 97.616 35.1502 98.144 34.5262 98.864L33.8542 101.888C33.6782 102.736 33.5102 103.584 33.3502 104.432C33.1902 105.28 33.0302 106.136 32.8702 107L29.9662 107.168ZM46.041 107.36C45.545 107.36 45.129 107.232 44.793 106.976C44.473 106.704 44.313 106.312 44.313 105.8C44.313 105.48 44.345 105.136 44.409 104.768C44.473 104.384 44.545 103.976 44.625 103.544L46.281 95.96H44.289L44.361 95.672L45.225 95.576C45.673 95.528 46.065 95.416 46.401 95.24C46.737 95.064 47.057 94.816 47.361 94.496L49.665 92.168H50.025L49.353 95.456H51.969L51.849 95.96H49.233L47.577 103.952C47.513 104.256 47.465 104.52 47.433 104.744C47.401 104.952 47.385 105.128 47.385 105.272C47.385 105.432 47.433 105.56 47.529 105.656C47.625 105.752 47.729 105.8 47.841 105.8C48.065 105.8 48.305 105.712 48.561 105.536C48.817 105.344 49.137 105.064 49.521 104.696L49.809 104.936C49.409 105.528 48.889 106.08 48.249 106.592C47.609 107.104 46.873 107.36 46.041 107.36ZM56.4075 107.36C55.2075 107.36 54.2315 106.968 53.4795 106.184C52.7275 105.4 52.3515 104.288 52.3515 102.848C52.3515 101.824 52.5275 100.848 52.8795 99.92C53.2315 98.992 53.7195 98.168 54.3435 97.448C54.9835 96.712 55.7195 96.136 56.5515 95.72C57.3835 95.304 58.2875 95.096 59.2635 95.096C60.2715 95.096 61.0395 95.328 61.5675 95.792C62.1115 96.24 62.3835 96.84 62.3835 97.592C62.3835 98.216 62.0875 98.832 61.4955 99.44C60.9195 100.048 60.1035 100.6 59.0475 101.096C57.9915 101.576 56.7515 101.944 55.3275 102.2C55.3435 103.304 55.5835 104.112 56.0475 104.624C56.5115 105.136 57.1515 105.392 57.9675 105.392C58.6555 105.392 59.2875 105.208 59.8635 104.84C60.4395 104.456 60.9275 104.008 61.3275 103.496L61.5675 103.664C61.2475 104.288 60.8315 104.88 60.3195 105.44C59.8235 106 59.2475 106.464 58.5915 106.832C57.9355 107.184 57.2075 107.36 56.4075 107.36ZM59.0955 95.744C58.7275 95.744 58.3275 95.904 57.8955 96.224C57.4795 96.544 57.0795 96.984 56.6955 97.544C56.3275 98.088 56.0155 98.72 55.7595 99.44C55.5195 100.144 55.3755 100.896 55.3275 101.696C57.0875 101.216 58.3355 100.584 59.0715 99.8C59.8235 99.016 60.1995 98.128 60.1995 97.136C60.1995 96.656 60.0955 96.304 59.8875 96.08C59.6795 95.856 59.4155 95.744 59.0955 95.744ZM71.6417 107.36C71.0977 107.36 70.6257 107.2 70.2257 106.88C69.8417 106.544 69.6497 106.048 69.6497 105.392C69.6497 105.024 69.6897 104.624 69.7697 104.192C69.8497 103.76 69.9377 103.336 70.0337 102.92L71.0897 98.192C71.2337 97.568 71.0177 97.112 70.4417 96.824L69.9857 96.632L70.0097 96.368L74.5457 95.072L74.7617 95.264L73.0817 102.608C72.9857 103.008 72.9057 103.368 72.8417 103.688C72.7777 104.008 72.7457 104.304 72.7457 104.576C72.7457 104.928 72.8257 105.184 72.9857 105.344C73.1457 105.488 73.3537 105.56 73.6097 105.56C73.9777 105.56 74.3857 105.432 74.8337 105.176C75.2817 104.904 75.8017 104.488 76.3937 103.928C76.4097 103.832 76.4337 103.728 76.4657 103.616L77.2817 99.752C77.4097 99.128 77.5297 98.504 77.6417 97.88C77.7697 97.24 77.8897 96.6 78.0017 95.96L81.0257 95.072L81.2897 95.288L79.3937 104C79.2657 104.56 79.2017 105 79.2017 105.32C79.2017 105.656 79.3457 105.824 79.6337 105.824C79.8577 105.824 80.0977 105.736 80.3537 105.56C80.6097 105.368 80.9217 105.088 81.2897 104.72L81.5777 105.008C81.1777 105.6 80.6657 106.144 80.0417 106.64C79.4337 107.12 78.7377 107.36 77.9537 107.36C77.4577 107.36 77.0417 107.192 76.7057 106.856C76.3857 106.504 76.2257 106.008 76.2257 105.368C76.2257 105.128 76.2417 104.896 76.2737 104.672C75.4417 105.504 74.6337 106.16 73.8497 106.64C73.0817 107.12 72.3457 107.36 71.6417 107.36ZM83.2022 107.168L82.9862 107L84.8342 98.168C84.9782 97.544 84.7542 97.096 84.1622 96.824L83.7542 96.632L83.7782 96.392L88.2422 95.072L88.4582 95.264L87.9062 98.168C88.7382 97.224 89.5862 96.48 90.4502 95.936C91.3142 95.376 92.1302 95.096 92.8982 95.096C93.4102 95.096 93.8342 95.256 94.1702 95.576C94.5062 95.88 94.6742 96.36 94.6742 97.016C94.6742 97.352 94.6422 97.704 94.5782 98.072C94.5142 98.424 94.4342 98.792 94.3382 99.176L93.0662 104.288C93.0022 104.544 92.9542 104.76 92.9222 104.936C92.8902 105.096 92.8742 105.24 92.8742 105.368C92.8742 105.704 93.0102 105.872 93.2822 105.872C93.7302 105.872 94.2982 105.512 94.9862 104.792L95.2262 105.032C94.8262 105.624 94.2982 106.16 93.6422 106.64C92.9862 107.12 92.2582 107.36 91.4582 107.36C90.9302 107.36 90.5222 107.24 90.2342 107C89.9462 106.744 89.8022 106.392 89.8022 105.944C89.8022 105.608 89.8422 105.264 89.9222 104.912C90.0022 104.544 90.0902 104.168 90.1862 103.784L91.1222 100.04C91.2502 99.528 91.3542 99.072 91.4342 98.672C91.5142 98.272 91.5542 97.904 91.5542 97.568C91.5542 97.28 91.4902 97.08 91.3622 96.968C91.2342 96.84 91.0582 96.776 90.8342 96.776C90.4502 96.776 89.9942 96.944 89.4662 97.28C88.9542 97.616 88.3862 98.144 87.7622 98.864L87.0902 101.888C86.9142 102.736 86.7462 103.584 86.5862 104.432C86.4262 105.28 86.2662 106.136 86.1062 107L83.2022 107.168ZM99.5878 107.36C99.1398 107.36 98.7158 107.256 98.3158 107.048C97.9158 106.84 97.5878 106.496 97.3318 106.016C97.0918 105.536 96.9718 104.904 96.9718 104.12C96.9718 103.272 97.1398 102.424 97.4758 101.576C97.8118 100.712 98.2598 99.896 98.8198 99.128C99.3798 98.344 100.004 97.656 100.692 97.064C101.38 96.456 102.092 95.976 102.828 95.624C103.564 95.272 104.26 95.096 104.916 95.096C105.236 95.096 105.532 95.16 105.804 95.288C106.092 95.4 106.364 95.56 106.62 95.768L108.564 95.024L108.756 95.144L106.668 104.336C106.556 104.784 106.5 105.152 106.5 105.44C106.5 105.776 106.652 105.944 106.956 105.944C107.18 105.944 107.436 105.84 107.724 105.632C108.028 105.424 108.372 105.144 108.756 104.792L108.948 104.984C108.708 105.368 108.404 105.744 108.036 106.112C107.684 106.464 107.284 106.76 106.836 107C106.404 107.24 105.94 107.36 105.444 107.36C104.9 107.36 104.46 107.2 104.124 106.88C103.788 106.544 103.62 106.032 103.62 105.344C103.62 105.12 103.628 104.904 103.644 104.696C103.004 105.416 102.324 106.04 101.604 106.568C100.9 107.096 100.228 107.36 99.5878 107.36ZM99.8038 103.04C99.8038 103.888 99.9398 104.504 100.212 104.888C100.5 105.256 100.876 105.44 101.34 105.44C101.724 105.44 102.108 105.32 102.492 105.08C102.876 104.84 103.292 104.496 103.74 104.048C103.772 103.856 103.812 103.656 103.86 103.448L105.372 96.536C105.164 96.28 104.916 96.104 104.628 96.008C104.34 95.912 104.084 95.864 103.86 95.864C103.172 95.864 102.452 96.272 101.7 97.088C101.108 97.744 100.644 98.608 100.308 99.68C99.9718 100.752 99.8038 101.872 99.8038 103.04ZM157.098 136.312C156.554 136.312 156.106 136.144 155.754 135.808C155.418 135.456 155.25 135.04 155.25 134.56C155.25 133.952 155.466 133.44 155.898 133.024C156.346 132.608 156.858 132.4 157.434 132.4C157.978 132.4 158.418 132.576 158.754 132.928C159.106 133.28 159.282 133.704 159.282 134.2C159.282 134.792 159.058 135.296 158.61 135.712C158.178 136.112 157.674 136.312 157.098 136.312Z" fill="white"/>
<path d="M18.552 136.36C17.912 136.36 17.344 136.112 16.848 135.616C16.368 135.12 16.128 134.256 16.128 133.024C16.128 132.192 16.288 131.352 16.608 130.504C16.928 129.656 17.352 128.856 17.88 128.104C18.424 127.336 19.032 126.648 19.704 126.04C20.392 125.432 21.104 124.96 21.84 124.624C22.576 124.272 23.296 124.096 24 124.096C24.32 124.096 24.624 124.144 24.912 124.24L25.272 122.44C25.416 121.72 25.152 121.232 24.48 120.976L23.952 120.76L24 120.52L28.656 119.176L28.824 119.344L25.872 133.312C25.824 133.568 25.784 133.784 25.752 133.96C25.736 134.12 25.728 134.28 25.728 134.44C25.728 134.776 25.864 134.944 26.136 134.944C26.328 134.944 26.584 134.848 26.904 134.656C27.24 134.448 27.576 134.144 27.912 133.744L28.176 133.984C27.792 134.624 27.272 135.184 26.616 135.664C25.96 136.128 25.264 136.36 24.528 136.36C24 136.36 23.584 136.192 23.28 135.856C22.976 135.504 22.824 135.056 22.824 134.512C22.824 134.24 22.848 133.92 22.896 133.552C22.24 134.384 21.52 135.064 20.736 135.592C19.968 136.104 19.24 136.36 18.552 136.36ZM19.056 132.256C19.056 133.056 19.184 133.632 19.44 133.984C19.696 134.336 20.032 134.512 20.448 134.512C21.184 134.512 22.032 133.952 22.992 132.832C23.008 132.752 23.024 132.664 23.04 132.568L24.504 125.488C24.104 125.12 23.632 124.936 23.088 124.936C22.688 124.936 22.312 125.032 21.96 125.224C21.624 125.4 21.304 125.656 21 125.992C20.632 126.408 20.296 126.968 19.992 127.672C19.704 128.36 19.472 129.112 19.296 129.928C19.136 130.728 19.056 131.504 19.056 132.256ZM33.885 136.36C32.685 136.36 31.709 135.968 30.957 135.184C30.205 134.4 29.829 133.288 29.829 131.848C29.829 130.824 30.005 129.848 30.357 128.92C30.709 127.992 31.197 127.168 31.821 126.448C32.461 125.712 33.197 125.136 34.029 124.72C34.861 124.304 35.765 124.096 36.741 124.096C37.749 124.096 38.517 124.328 39.045 124.792C39.589 125.24 39.861 125.84 39.861 126.592C39.861 127.216 39.565 127.832 38.973 128.44C38.397 129.048 37.581 129.6 36.525 130.096C35.469 130.576 34.229 130.944 32.805 131.2C32.821 132.304 33.061 133.112 33.525 133.624C33.989 134.136 34.629 134.392 35.445 134.392C36.133 134.392 36.765 134.208 37.341 133.84C37.917 133.456 38.405 133.008 38.805 132.496L39.045 132.664C38.725 133.288 38.309 133.88 37.797 134.44C37.301 135 36.725 135.464 36.069 135.832C35.413 136.184 34.685 136.36 33.885 136.36ZM36.573 124.744C36.205 124.744 35.805 124.904 35.373 125.224C34.957 125.544 34.557 125.984 34.173 126.544C33.805 127.088 33.493 127.72 33.237 128.44C32.997 129.144 32.853 129.896 32.805 130.696C34.565 130.216 35.813 129.584 36.549 128.8C37.301 128.016 37.677 127.128 37.677 126.136C37.677 125.656 37.573 125.304 37.365 125.08C37.157 124.856 36.893 124.744 36.573 124.744ZM43.8765 136.36C42.8685 136.36 42.0525 136.16 41.4285 135.76C40.8045 135.36 40.4925 134.792 40.4925 134.056C40.4925 133.672 40.6285 133.336 40.9005 133.048C41.1725 132.76 41.5245 132.616 41.9565 132.616C42.7565 132.616 43.2525 133.104 43.4445 134.08L43.5885 134.752C43.6685 135.088 43.7645 135.36 43.8765 135.568C44.0045 135.776 44.2445 135.88 44.5965 135.88C44.9965 135.88 45.3485 135.712 45.6525 135.376C45.9565 135.04 46.1085 134.576 46.1085 133.984C46.1085 133.536 45.9645 133.104 45.6765 132.688C45.4045 132.272 44.9405 131.816 44.2845 131.32C43.6285 130.808 43.1005 130.28 42.7005 129.736C42.3005 129.176 42.1005 128.512 42.1005 127.744C42.1005 127.072 42.2685 126.464 42.6045 125.92C42.9565 125.36 43.4605 124.92 44.1165 124.6C44.7725 124.264 45.5485 124.096 46.4445 124.096C47.4845 124.096 48.3005 124.304 48.8925 124.72C49.5005 125.136 49.8045 125.672 49.8045 126.328C49.8045 126.68 49.7005 126.976 49.4925 127.216C49.2845 127.44 48.9725 127.552 48.5565 127.552C47.7885 127.552 47.2685 127.088 46.9965 126.16L46.7565 125.488C46.6765 125.168 46.5805 124.944 46.4685 124.816C46.3565 124.688 46.1805 124.624 45.9405 124.624C45.6845 124.624 45.4205 124.768 45.1485 125.056C44.8765 125.328 44.7405 125.768 44.7405 126.376C44.7405 126.952 44.9085 127.48 45.2445 127.96C45.5965 128.424 46.1165 128.912 46.8045 129.424C47.5085 129.952 48.0205 130.464 48.3405 130.96C48.6765 131.456 48.8445 132.056 48.8445 132.76C48.8445 133.416 48.6525 134.016 48.2685 134.56C47.8845 135.104 47.3245 135.544 46.5885 135.88C45.8525 136.2 44.9485 136.36 43.8765 136.36ZM53.6756 136.36C53.2276 136.36 52.8036 136.256 52.4036 136.048C52.0036 135.84 51.6756 135.496 51.4196 135.016C51.1796 134.536 51.0596 133.904 51.0596 133.12C51.0596 132.272 51.2276 131.424 51.5636 130.576C51.8996 129.712 52.3476 128.896 52.9076 128.128C53.4676 127.344 54.0916 126.656 54.7796 126.064C55.4676 125.456 56.1796 124.976 56.9156 124.624C57.6516 124.272 58.3476 124.096 59.0036 124.096C59.3236 124.096 59.6196 124.16 59.8916 124.288C60.1796 124.4 60.4516 124.56 60.7076 124.768L62.6516 124.024L62.8436 124.144L60.7556 133.336C60.6436 133.784 60.5876 134.152 60.5876 134.44C60.5876 134.776 60.7396 134.944 61.0436 134.944C61.2676 134.944 61.5236 134.84 61.8116 134.632C62.1156 134.424 62.4596 134.144 62.8436 133.792L63.0356 133.984C62.7956 134.368 62.4916 134.744 62.1236 135.112C61.7716 135.464 61.3716 135.76 60.9236 136C60.4916 136.24 60.0276 136.36 59.5316 136.36C58.9876 136.36 58.5476 136.2 58.2116 135.88C57.8756 135.544 57.7076 135.032 57.7076 134.344C57.7076 134.12 57.7156 133.904 57.7316 133.696C57.0916 134.416 56.4116 135.04 55.6916 135.568C54.9876 136.096 54.3156 136.36 53.6756 136.36ZM53.8916 132.04C53.8916 132.888 54.0276 133.504 54.2996 133.888C54.5876 134.256 54.9636 134.44 55.4276 134.44C55.8116 134.44 56.1956 134.32 56.5796 134.08C56.9636 133.84 57.3796 133.496 57.8276 133.048C57.8596 132.856 57.8996 132.656 57.9476 132.448L59.4596 125.536C59.2516 125.28 59.0036 125.104 58.7156 125.008C58.4276 124.912 58.1716 124.864 57.9476 124.864C57.2596 124.864 56.5396 125.272 55.7876 126.088C55.1956 126.744 54.7316 127.608 54.3956 128.68C54.0596 129.752 53.8916 130.872 53.8916 132.04ZM68.9059 136.36C68.4899 136.36 68.0899 136.272 67.7059 136.096C67.5299 136.896 67.3779 137.616 67.2499 138.256C67.1219 138.896 67.0099 139.504 66.9139 140.08C66.8339 140.608 67.0579 140.944 67.5859 141.088L68.1859 141.28L68.1379 141.52H62.3539L62.4019 141.28L62.8579 141.16C63.4179 141 63.7539 140.64 63.8659 140.08L66.5779 127.144C66.6899 126.52 66.4659 126.08 65.9059 125.824L65.4499 125.632L65.4979 125.368L69.9379 124.072L70.1779 124.264L69.6739 126.784C70.2979 126 71.0099 125.36 71.8099 124.864C72.6259 124.352 73.3859 124.096 74.0899 124.096C74.7459 124.096 75.3139 124.328 75.7939 124.792C76.2739 125.256 76.5139 126.096 76.5139 127.312C76.5139 128.192 76.3619 129.064 76.0579 129.928C75.7699 130.792 75.3619 131.616 74.8339 132.4C74.3219 133.168 73.7379 133.848 73.0819 134.44C72.4259 135.032 71.7379 135.504 71.0179 135.856C70.2979 136.192 69.5939 136.36 68.9059 136.36ZM72.0019 125.872C71.6339 125.872 71.2339 126.016 70.8019 126.304C70.3699 126.592 69.9459 126.992 69.5299 127.504L68.1139 134.44C68.7059 135.032 69.3219 135.328 69.9619 135.328C70.9059 135.328 71.6819 134.832 72.2899 133.84C72.5139 133.456 72.7219 132.968 72.9139 132.376C73.1059 131.784 73.2579 131.144 73.3699 130.456C73.4979 129.752 73.5619 129.072 73.5619 128.416C73.5619 127.616 73.4259 126.992 73.1539 126.544C72.8979 126.096 72.5139 125.872 72.0019 125.872ZM80.3466 136.36C79.8986 136.36 79.4746 136.256 79.0746 136.048C78.6746 135.84 78.3466 135.496 78.0906 135.016C77.8506 134.536 77.7306 133.904 77.7306 133.12C77.7306 132.272 77.8986 131.424 78.2346 130.576C78.5706 129.712 79.0186 128.896 79.5786 128.128C80.1386 127.344 80.7626 126.656 81.4506 126.064C82.1386 125.456 82.8506 124.976 83.5866 124.624C84.3226 124.272 85.0186 124.096 85.6746 124.096C85.9946 124.096 86.2906 124.16 86.5626 124.288C86.8506 124.4 87.1226 124.56 87.3786 124.768L89.3226 124.024L89.5146 124.144L87.4266 133.336C87.3146 133.784 87.2586 134.152 87.2586 134.44C87.2586 134.776 87.4106 134.944 87.7146 134.944C87.9386 134.944 88.1946 134.84 88.4826 134.632C88.7866 134.424 89.1306 134.144 89.5146 133.792L89.7066 133.984C89.4666 134.368 89.1626 134.744 88.7946 135.112C88.4426 135.464 88.0426 135.76 87.5946 136C87.1626 136.24 86.6986 136.36 86.2026 136.36C85.6586 136.36 85.2186 136.2 84.8826 135.88C84.5466 135.544 84.3786 135.032 84.3786 134.344C84.3786 134.12 84.3866 133.904 84.4026 133.696C83.7626 134.416 83.0826 135.04 82.3626 135.568C81.6586 136.096 80.9866 136.36 80.3466 136.36ZM80.5626 132.04C80.5626 132.888 80.6986 133.504 80.9706 133.888C81.2586 134.256 81.6346 134.44 82.0986 134.44C82.4826 134.44 82.8666 134.32 83.2506 134.08C83.6346 133.84 84.0506 133.496 84.4986 133.048C84.5306 132.856 84.5706 132.656 84.6186 132.448L86.1306 125.536C85.9226 125.28 85.6746 125.104 85.3866 125.008C85.0986 124.912 84.8426 124.864 84.6186 124.864C83.9306 124.864 83.2106 125.272 82.4586 126.088C81.8666 126.744 81.4026 127.608 81.0666 128.68C80.7306 129.752 80.5626 130.872 80.5626 132.04ZM91.6168 136.168L91.3768 136L93.2008 127.216C93.2808 126.8 93.2568 126.496 93.1288 126.304C93.0008 126.096 92.7848 125.928 92.4808 125.8L92.1208 125.632L92.1688 125.392L96.3448 124.072L96.5848 124.288L95.9368 128.248C96.2728 127.48 96.6648 126.784 97.1128 126.16C97.5608 125.536 98.0328 125.04 98.5288 124.672C99.0248 124.288 99.5208 124.096 100.017 124.096C100.513 124.096 100.913 124.232 101.217 124.504C101.521 124.76 101.673 125.104 101.673 125.536C101.673 125.984 101.537 126.352 101.265 126.64C101.009 126.928 100.657 127.072 100.209 127.072C99.8568 127.072 99.5208 126.984 99.2008 126.808C98.8808 126.616 98.5688 126.344 98.2648 125.992C97.7048 126.408 97.2248 126.952 96.8248 127.624C96.4248 128.28 96.0568 129 95.7208 129.784L95.4808 130.888C95.3048 131.736 95.1368 132.584 94.9768 133.432C94.8168 134.28 94.6568 135.136 94.4968 136L91.6168 136.168ZM106.42 122.752C105.972 122.752 105.58 122.608 105.244 122.32C104.924 122.016 104.764 121.616 104.764 121.12C104.764 120.56 104.956 120.104 105.34 119.752C105.74 119.384 106.188 119.2 106.684 119.2C107.164 119.2 107.556 119.352 107.86 119.656C108.164 119.96 108.316 120.352 108.316 120.832C108.316 121.376 108.124 121.832 107.74 122.2C107.356 122.568 106.916 122.752 106.42 122.752ZM104.188 136.36C103.692 136.36 103.284 136.232 102.964 135.976C102.644 135.72 102.484 135.344 102.484 134.848C102.484 134.56 102.516 134.216 102.58 133.816C102.644 133.416 102.716 133.016 102.796 132.616L103.924 127.216C104.068 126.56 103.836 126.096 103.228 125.824L102.844 125.632L102.868 125.368L107.38 124.072L107.62 124.288L105.748 132.976C105.684 133.264 105.636 133.512 105.604 133.72C105.572 133.912 105.556 134.104 105.556 134.296C105.556 134.648 105.716 134.824 106.036 134.824C106.276 134.824 106.516 134.752 106.756 134.608C106.996 134.448 107.3 134.192 107.668 133.84L107.884 134.056C107.484 134.648 106.972 135.184 106.348 135.664C105.74 136.128 105.02 136.36 104.188 136.36ZM113.791 136.36C112.607 136.36 111.639 135.96 110.887 135.16C110.135 134.36 109.759 133.24 109.759 131.8C109.759 130.776 109.935 129.808 110.287 128.896C110.639 127.968 111.127 127.144 111.751 126.424C112.391 125.704 113.119 125.136 113.935 124.72C114.767 124.304 115.655 124.096 116.599 124.096C117.159 124.096 117.679 124.184 118.159 124.36C118.655 124.536 119.047 124.784 119.335 125.104C119.639 125.424 119.783 125.8 119.767 126.232C119.751 126.664 119.615 127.008 119.359 127.264C119.103 127.504 118.767 127.624 118.351 127.624C117.903 127.624 117.543 127.488 117.271 127.216C116.999 126.944 116.783 126.632 116.623 126.28L116.479 125.872C116.255 125.344 116.055 125.032 115.879 124.936C115.719 124.824 115.439 124.936 115.039 125.272C114.607 125.64 114.199 126.136 113.815 126.76C113.447 127.384 113.151 128.072 112.927 128.824C112.703 129.576 112.591 130.344 112.591 131.128C112.591 132.328 112.847 133.216 113.359 133.792C113.887 134.352 114.591 134.632 115.471 134.632C116.047 134.632 116.615 134.448 117.175 134.08C117.735 133.712 118.255 133.2 118.735 132.544L119.071 132.784C118.735 133.408 118.303 133.992 117.775 134.536C117.247 135.08 116.639 135.52 115.951 135.856C115.279 136.192 114.559 136.36 113.791 136.36ZM125.122 122.752C124.674 122.752 124.282 122.608 123.946 122.32C123.626 122.016 123.466 121.616 123.466 121.12C123.466 120.56 123.658 120.104 124.042 119.752C124.442 119.384 124.89 119.2 125.386 119.2C125.866 119.2 126.258 119.352 126.562 119.656C126.866 119.96 127.018 120.352 127.018 120.832C127.018 121.376 126.826 121.832 126.442 122.2C126.058 122.568 125.618 122.752 125.122 122.752ZM122.89 136.36C122.394 136.36 121.986 136.232 121.666 135.976C121.346 135.72 121.186 135.344 121.186 134.848C121.186 134.56 121.218 134.216 121.282 133.816C121.346 133.416 121.418 133.016 121.498 132.616L122.626 127.216C122.77 126.56 122.538 126.096 121.93 125.824L121.546 125.632L121.57 125.368L126.082 124.072L126.322 124.288L124.45 132.976C124.386 133.264 124.338 133.512 124.306 133.72C124.274 133.912 124.258 134.104 124.258 134.296C124.258 134.648 124.418 134.824 124.738 134.824C124.978 134.824 125.218 134.752 125.458 134.608C125.698 134.448 126.002 134.192 126.37 133.84L126.586 134.056C126.186 134.648 125.674 135.184 125.05 135.664C124.442 136.128 123.722 136.36 122.89 136.36ZM132.902 136.36C132.07 136.36 131.31 136.2 130.622 135.88C129.934 135.544 129.39 135.048 128.99 134.392C128.59 133.72 128.39 132.872 128.39 131.848C128.39 130.824 128.558 129.848 128.894 128.92C129.246 127.992 129.734 127.168 130.358 126.448C130.982 125.712 131.71 125.136 132.542 124.72C133.374 124.304 134.278 124.096 135.254 124.096C136.102 124.096 136.854 124.264 137.51 124.6C138.182 124.92 138.71 125.408 139.094 126.064C139.494 126.72 139.694 127.56 139.694 128.584C139.694 129.592 139.518 130.568 139.166 131.512C138.83 132.44 138.35 133.272 137.726 134.008C137.118 134.728 136.398 135.304 135.566 135.736C134.75 136.152 133.862 136.36 132.902 136.36ZM133.19 135.88C133.686 135.88 134.134 135.656 134.534 135.208C134.95 134.744 135.31 134.136 135.614 133.384C135.918 132.616 136.15 131.776 136.31 130.864C136.47 129.936 136.55 129.016 136.55 128.104C136.55 126.776 136.414 125.856 136.142 125.344C135.87 124.832 135.518 124.576 135.086 124.576C134.574 124.576 134.102 124.8 133.67 125.248C133.238 125.696 132.862 126.296 132.542 127.048C132.222 127.8 131.974 128.632 131.798 129.544C131.622 130.456 131.534 131.368 131.534 132.28C131.534 133.64 131.694 134.584 132.014 135.112C132.334 135.624 132.726 135.88 133.19 135.88ZM135.326 122.8C135.534 122.144 135.742 121.496 135.95 120.856C136.158 120.2 136.366 119.56 136.574 118.936C136.75 118.36 136.966 117.952 137.222 117.712C137.494 117.456 137.798 117.328 138.134 117.328C138.486 117.328 138.798 117.448 139.07 117.688C139.342 117.912 139.478 118.208 139.478 118.576C139.478 118.88 139.382 119.168 139.19 119.44C138.998 119.696 138.734 119.984 138.398 120.304C137.918 120.768 137.454 121.224 137.006 121.672C136.574 122.12 136.118 122.568 135.638 123.016L135.326 122.8ZM141.36 136.168L141.144 136L142.992 127.168C143.136 126.544 142.912 126.096 142.32 125.824L141.912 125.632L141.936 125.392L146.4 124.072L146.616 124.264L146.064 127.168C146.896 126.224 147.744 125.48 148.608 124.936C149.472 124.376 150.288 124.096 151.056 124.096C151.568 124.096 151.992 124.256 152.328 124.576C152.664 124.88 152.832 125.36 152.832 126.016C152.832 126.352 152.8 126.704 152.736 127.072C152.672 127.424 152.592 127.792 152.496 128.176L151.224 133.288C151.16 133.544 151.112 133.76 151.08 133.936C151.048 134.096 151.032 134.24 151.032 134.368C151.032 134.704 151.168 134.872 151.44 134.872C151.888 134.872 152.456 134.512 153.144 133.792L153.384 134.032C152.984 134.624 152.456 135.16 151.8 135.64C151.144 136.12 150.416 136.36 149.616 136.36C149.088 136.36 148.68 136.24 148.392 136C148.104 135.744 147.96 135.392 147.96 134.944C147.96 134.608 148 134.264 148.08 133.912C148.16 133.544 148.248 133.168 148.344 132.784L149.28 129.04C149.408 128.528 149.512 128.072 149.592 127.672C149.672 127.272 149.712 126.904 149.712 126.568C149.712 126.28 149.648 126.08 149.52 125.968C149.392 125.84 149.216 125.776 148.992 125.776C148.608 125.776 148.152 125.944 147.624 126.28C147.112 126.616 146.544 127.144 145.92 127.864L145.248 130.888C145.072 131.736 144.904 132.584 144.744 133.432C144.584 134.28 144.424 135.136 144.264 136L141.36 136.168Z" fill="#00FFB6"/>
</svg>
