<svg width="1080" height="1080" viewBox="0 0 1080 1080" fill="none" xmlns="http://www.w3.org/2000/svg">
<rect width="1080" height="1080" fill="#A7A2A0"/>
<path d="M446.52 665C423.803 665 405.383 657.032 391.262 641.095C377.754 624.546 371 603.093 371 576.736C371 542.411 381.131 510.538 401.392 481.117C421.654 451.083 446.827 428.711 476.913 414L482.439 425.033C469.545 434.84 458.186 447.405 448.362 462.729C438.539 478.052 431.478 497.054 427.18 519.733L446.52 524.33C468.01 529.233 484.588 538.427 496.253 551.912C508.533 564.784 514.673 580.414 514.673 598.802C514.673 618.416 507.919 634.353 494.411 646.612C481.518 658.871 465.554 665 446.52 665ZM640.847 665C618.13 665 599.71 657.032 585.589 641.095C572.081 624.546 565.327 603.093 565.327 576.736C565.327 542.411 575.458 510.538 595.719 481.117C615.981 451.083 641.154 428.711 671.24 414L676.766 425.033C663.872 434.84 652.513 447.405 642.689 462.729C632.866 478.052 625.805 497.054 621.507 519.733L640.847 524.33C662.337 529.233 678.915 538.427 690.58 551.912C702.86 564.784 709 580.414 709 598.802C709 618.416 702.246 634.353 688.738 646.612C675.845 658.871 659.881 665 640.847 665Z" fill="#52504D"/>
</svg>
